<svg width="30" height="31" viewBox="0 0 30 31" fill="none" xmlns="http://www.w3.org/2000/svg">
<path d="M0.833344 30.5833V27.75H2.25001C3.00557 27.75 3.73751 27.6319 4.44584 27.3958C5.15418 27.1597 5.8389 26.8056 6.50001 26.3333C7.16112 26.8056 7.84584 27.1541 8.55418 27.3788C9.26251 27.6027 9.99446 27.7146 10.75 27.7146C11.5056 27.7146 12.2432 27.6027 12.9628 27.3788C13.6835 27.1541 14.3625 26.8056 15 26.3333C15.6611 26.8056 16.3458 27.1541 17.0542 27.3788C17.7625 27.6027 18.4945 27.7146 19.25 27.7146C20.0056 27.7146 20.7432 27.6027 21.4628 27.3788C22.1835 27.1541 22.8625 26.8056 23.5 26.3333C24.1375 26.8056 24.8166 27.1597 25.5372 27.3958C26.2568 27.6319 26.9945 27.75 27.75 27.75H29.1667V30.5833H27.75C27.0181 30.5833 26.2979 30.4946 25.5896 30.317C24.8813 30.1404 24.1847 29.875 23.5 29.5208C22.8153 29.875 22.1188 30.1404 21.4104 30.317C20.7021 30.4946 19.982 30.5833 19.25 30.5833C18.5181 30.5833 17.7979 30.4946 17.0896 30.317C16.3813 30.1404 15.6847 29.875 15 29.5208C14.3153 29.875 13.6188 30.1404 12.9104 30.317C12.2021 30.4946 11.482 30.5833 10.75 30.5833C10.0181 30.5833 9.29793 30.4946 8.58959 30.317C7.88126 30.1404 7.18473 29.875 6.50001 29.5208C5.81529 29.875 5.11876 30.1404 4.41043 30.317C3.70209 30.4946 2.98195 30.5833 2.25001 30.5833H0.833344ZM10.0417 3.66667L17.9042 5.11875C18.2347 5.16597 18.5535 5.29583 18.8604 5.50833C19.1674 5.72083 19.4271 6.01597 19.6396 6.39375L20.8792 8.58958C21.4931 9.65208 22.3431 10.5139 23.4292 11.175C24.5153 11.8361 25.7195 12.1667 27.0417 12.1667V15C25.2 15 23.5236 14.5396 22.0125 13.6188C20.5014 12.6979 19.309 11.4938 18.4354 10.0063C18.4118 10.0299 18.2465 10.1418 17.9396 10.342C17.6327 10.5432 17.2964 10.7679 16.9309 11.0163L15.8854 11.7247C15.5549 11.9485 15.3424 12.0958 15.2479 12.1667L16.2226 12.9458C16.7534 13.3708 17.3318 13.8251 17.958 14.3087L19.692 15.6545C20.2237 16.0682 20.5486 16.3222 20.6667 16.4167V21.8708C21.0445 22.1306 21.4104 22.4021 21.7646 22.6854C22.1188 22.9688 22.4611 23.2403 22.7917 23.5C22.2958 23.925 21.7528 24.2674 21.1625 24.5271C20.5722 24.7868 19.9347 24.9167 19.25 24.9167C18.4 24.9167 17.609 24.716 16.8771 24.3146C16.1451 23.9132 15.5195 23.4056 15 22.7917C14.4806 23.4056 13.8549 23.9132 13.1229 24.3146C12.391 24.716 11.6 24.9167 10.75 24.9167C10.5139 24.9167 10.2835 24.8987 10.0587 24.8628C9.83484 24.8279 9.61668 24.775 9.40418 24.7042C7.37362 23.3111 5.67362 21.9063 4.30418 20.4896C2.93473 19.0729 2.25001 17.8451 2.25001 16.8062C2.25001 16.0743 2.53334 15.5903 3.10001 15.3542C3.66668 15.1181 4.25695 15 4.87084 15C5.55557 15 6.34654 15.1001 7.24376 15.3003C8.14098 15.5015 9.09723 15.791 10.1125 16.1688L9.36876 11.7771C9.27432 11.3049 9.32721 10.8388 9.52743 10.3788C9.72859 9.91794 10.0417 9.54583 10.4667 9.2625L13.5125 7.20833C13.4417 7.20833 13.2707 7.17906 12.9997 7.1205C12.7277 7.061 12.4264 7.0015 12.0958 6.942C11.7653 6.88344 11.464 6.82489 11.192 6.76633C10.921 6.70683 10.75 6.67708 10.6792 6.67708L6.67709 9.40417L5.08334 7.06667L10.0417 3.66667ZM12.5917 13.725L13.2292 17.4792C13.8667 17.7861 14.6576 18.1936 15.6021 18.7018C16.5465 19.2089 17.2903 19.6278 17.8333 19.9583V17.8333C17.7625 17.7861 17.4674 17.5557 16.9479 17.142C16.4285 16.7293 15.8618 16.2868 15.2479 15.8146C14.634 15.3424 14.0617 14.8938 13.5309 14.4688C12.9992 14.0438 12.6861 13.7958 12.5917 13.725ZM22.0833 5.79167C21.3042 5.79167 20.6374 5.514 20.083 4.95867C19.5277 4.40428 19.25 3.7375 19.25 2.95833C19.25 2.17917 19.5277 1.51192 20.083 0.956583C20.6374 0.402194 21.3042 0.125 22.0833 0.125C22.8625 0.125 23.5298 0.402194 24.0851 0.956583C24.6395 1.51192 24.9167 2.17917 24.9167 2.95833C24.9167 3.7375 24.6395 4.40428 24.0851 4.95867C23.5298 5.514 22.8625 5.79167 22.0833 5.79167Z" fill="white"/>
</svg>
