<svg width="30" height="30" viewBox="0 0 30 30" fill="none" xmlns="http://www.w3.org/2000/svg">
<path d="M23.5 0.833344C22.3793 0.833344 21.2837 1.16569 20.3518 1.78835C19.4199 2.41101 18.6936 3.29602 18.2647 4.33147C17.8358 5.36692 17.7236 6.5063 17.9422 7.60552C18.1609 8.70475 18.7006 9.71445 19.4931 10.5069C20.2856 11.2994 21.2953 11.8391 22.3945 12.0578C23.4937 12.2764 24.6331 12.1642 25.6686 11.7353C26.704 11.3064 27.589 10.5801 28.2117 9.64824C28.8343 8.71636 29.1667 7.62077 29.1667 6.50001C29.1667 4.99712 28.5697 3.55578 27.5069 2.49307C26.4442 1.43037 25.0029 0.833344 23.5 0.833344ZM23.5 9.33334C22.9396 9.33334 22.3918 9.16717 21.9259 8.85584C21.46 8.54451 21.0968 8.102 20.8824 7.58428C20.6679 7.06656 20.6118 6.49687 20.7211 5.94725C20.8304 5.39764 21.1003 4.89279 21.4965 4.49654C21.8928 4.10029 22.3976 3.83044 22.9473 3.72112C23.4969 3.61179 24.0666 3.6679 24.5843 3.88235C25.102 4.0968 25.5445 4.45996 25.8558 4.9259C26.1672 5.39183 26.3333 5.93963 26.3333 6.50001C26.3333 7.25146 26.0348 7.97213 25.5035 8.50348C24.9721 9.03483 24.2515 9.33334 23.5 9.33334ZM19.25 26.3333H16.4167V23.5C16.4167 23.1243 16.2674 22.764 16.0017 22.4983C15.7361 22.2326 15.3757 22.0833 15 22.0833C14.6243 22.0833 14.264 22.2326 13.9983 22.4983C13.7326 22.764 13.5833 23.1243 13.5833 23.5V26.3333H10.75V21.545L15.6375 19.0942C15.8711 18.9765 16.0676 18.7963 16.2051 18.5738C16.3427 18.3512 16.4159 18.095 16.4167 17.8333V12.1667C16.4167 11.791 16.2674 11.4306 16.0017 11.1649C15.7361 10.8993 15.3757 10.75 15 10.75C14.6243 10.75 14.264 10.8993 13.9983 11.1649C13.7326 11.4306 13.5833 11.791 13.5833 12.1667V16.955L10.75 18.3717V9.33334C10.75 8.95762 10.6008 8.59729 10.3351 8.33161C10.0694 8.06593 9.70907 7.91668 9.33334 7.91668C8.95762 7.91668 8.59729 8.06593 8.33161 8.33161C8.06593 8.59729 7.91668 8.95762 7.91668 9.33334V21.205L5.08334 19.7883V16.4167C5.08334 16.041 4.93409 15.6806 4.66841 15.4149C4.40273 15.1493 4.0424 15 3.66668 15C3.29095 15 2.93062 15.1493 2.66494 15.4149C2.39927 15.6806 2.25001 16.041 2.25001 16.4167V20.6667C2.2508 20.9283 2.32402 21.1846 2.46155 21.4071C2.59908 21.6297 2.79555 21.8098 3.02918 21.9275L7.91668 24.3783V26.3333H2.25001C1.87429 26.3333 1.51395 26.4826 1.24828 26.7483C0.982599 27.014 0.833344 27.3743 0.833344 27.75C0.833344 28.1257 0.982599 28.4861 1.24828 28.7517C1.51395 29.0174 1.87429 29.1667 2.25001 29.1667H19.25C19.6257 29.1667 19.9861 29.0174 20.2517 28.7517C20.5174 28.4861 20.6667 28.1257 20.6667 27.75C20.6667 27.3743 20.5174 27.014 20.2517 26.7483C19.9861 26.4826 19.6257 26.3333 19.25 26.3333Z" fill="white" fill-opacity="0.6"/>
</svg>
