<svg width="28" height="28" viewBox="0 0 28 28" fill="none" xmlns="http://www.w3.org/2000/svg">
<path d="M27.2547 16.6695C27.3089 16.8718 27.3227 17.0829 27.2952 17.2905C27.2678 17.4982 27.1998 17.6984 27.0949 17.8797C26.9901 18.061 26.8505 18.2199 26.6842 18.3472C26.5179 18.4746 26.3282 18.5679 26.1258 18.6219L23.3102 19.3789L24.0672 22.1945C24.1214 22.3968 24.1352 22.6079 24.1077 22.8155C24.0803 23.0232 24.0123 23.2234 23.9074 23.4047C23.8026 23.586 23.663 23.7449 23.4967 23.8722C23.3304 23.9996 23.1407 24.0929 22.9383 24.1469C22.8043 24.1841 22.6656 24.202 22.5266 24.2C22.1754 24.2002 21.834 24.0844 21.5554 23.8707C21.2768 23.6569 21.0766 23.3572 20.9859 23.018L19.9898 19.2992L15.5937 16.7625V21.8359L18.3164 24.5586C18.465 24.7066 18.5829 24.8826 18.6633 25.0763C18.7438 25.27 18.7852 25.4777 18.7852 25.6875C18.7852 25.8972 18.7438 26.1049 18.6633 26.2987C18.5829 26.4924 18.465 26.6683 18.3164 26.8164C18.0157 27.1132 17.6101 27.2797 17.1875 27.2797C16.7649 27.2797 16.3593 27.1132 16.0586 26.8164L14 24.7578L11.9414 26.8164C11.7932 26.9646 11.6172 27.0822 11.4235 27.1625C11.2298 27.2427 11.0222 27.284 10.8125 27.284C10.6028 27.284 10.3952 27.2427 10.2015 27.1625C10.0078 27.0822 9.83184 26.9646 9.68359 26.8164C9.53534 26.6681 9.41774 26.4921 9.33751 26.2984C9.25728 26.1047 9.21598 25.8971 9.21598 25.6875C9.21598 25.4778 9.25728 25.2702 9.33751 25.0765C9.41774 24.8828 9.53534 24.7068 9.68359 24.5586L12.4062 21.8359V16.7625L8.01015 19.2992L7.01406 23.018C6.92335 23.3572 6.72315 23.6569 6.44455 23.8707C6.16596 24.0844 5.82458 24.2002 5.47343 24.2C5.33437 24.202 5.19573 24.1841 5.06172 24.1469C4.85933 24.0929 4.66957 23.9996 4.50328 23.8722C4.33699 23.7449 4.19743 23.586 4.09258 23.4047C3.98774 23.2234 3.91966 23.0232 3.89224 22.8155C3.86483 22.6079 3.87861 22.3968 3.93281 22.1945L4.68984 19.3789L1.87422 18.6219C1.6719 18.5678 1.48221 18.4744 1.31598 18.347C1.14976 18.2197 1.01025 18.0608 0.905419 17.8795C0.800591 17.6982 0.732497 17.498 0.705025 17.2904C0.677553 17.0828 0.691242 16.8718 0.74531 16.6695C0.799377 16.4672 0.892765 16.2775 1.02014 16.1113C1.14752 15.9451 1.30639 15.8055 1.48768 15.7007C1.66897 15.5959 1.86913 15.5278 2.07674 15.5003C2.28435 15.4729 2.49534 15.4865 2.69765 15.5406L6.4164 16.5367L10.8125 14L6.4164 11.4633L2.69765 12.4594C2.56364 12.4966 2.425 12.5145 2.28593 12.5125C1.89857 12.5134 1.52413 12.3732 1.23264 12.118C0.941139 11.8629 0.752535 11.5104 0.702085 11.1263C0.651635 10.7422 0.742793 10.3529 0.958516 10.0312C1.17424 9.70945 1.49976 9.47729 1.87422 9.37811L4.68984 8.62108L3.93281 5.80546C3.82362 5.39686 3.88121 4.96162 4.09292 4.59548C4.30463 4.22934 4.65312 3.96231 5.06172 3.85311C5.47032 3.74392 5.90556 3.80151 6.27169 4.01322C6.63783 4.22493 6.90487 4.57342 7.01406 4.98202L8.01015 8.70077L12.4062 11.2375V6.16405L9.68359 3.44139C9.38419 3.14199 9.21598 2.73591 9.21598 2.31249C9.21598 2.10283 9.25728 1.89523 9.33751 1.70153C9.41774 1.50783 9.53534 1.33183 9.68359 1.18358C9.83184 1.03533 10.0078 0.917733 10.2015 0.8375C10.3952 0.757268 10.6028 0.715973 10.8125 0.715973C11.2359 0.715973 11.642 0.884177 11.9414 1.18358L14 3.24217L16.0586 1.18358C16.358 0.884177 16.7641 0.715973 17.1875 0.715973C17.3972 0.715973 17.6048 0.757268 17.7985 0.8375C17.9922 0.917733 18.1682 1.03533 18.3164 1.18358C18.4647 1.33183 18.5823 1.50783 18.6625 1.70153C18.7427 1.89523 18.784 2.10283 18.784 2.31249C18.784 2.52214 18.7427 2.72975 18.6625 2.92345C18.5823 3.11715 18.4647 3.29314 18.3164 3.44139L15.5937 6.16405V11.2375L19.9898 8.70077L20.9859 4.98202C21.04 4.7797 21.1334 4.59001 21.2608 4.42379C21.3881 4.25756 21.547 4.11805 21.7283 4.01322C21.9096 3.90839 22.1098 3.8403 22.3174 3.81283C22.525 3.78536 22.736 3.79904 22.9383 3.85311C23.1406 3.90718 23.3303 4.00057 23.4965 4.12794C23.6627 4.25532 23.8022 4.41419 23.9071 4.59548C24.0119 4.77677 24.08 4.97694 24.1075 5.18454C24.1349 5.39215 24.1213 5.60314 24.0672 5.80546L23.3102 8.62108L26.1258 9.37811C26.5002 9.47729 26.8258 9.70945 27.0415 10.0312C27.2572 10.3529 27.3484 10.7422 27.2979 11.1263C27.2475 11.5104 27.0589 11.8629 26.7674 12.118C26.4759 12.3732 26.1014 12.5134 25.7141 12.5125C25.575 12.5145 25.4364 12.4966 25.3023 12.4594L21.5836 11.4633L17.1875 14L21.5836 16.5367L25.3023 15.5406C25.5047 15.4864 25.7157 15.4726 25.9233 15.5C26.131 15.5275 26.3312 15.5955 26.5125 15.7004C26.6938 15.8052 26.8527 15.9448 26.9801 16.1111C27.1074 16.2774 27.2007 16.4671 27.2547 16.6695Z" fill="white"/>
</svg>
