<svg width="30" height="30" viewBox="0 0 30 30" fill="none" xmlns="http://www.w3.org/2000/svg">
<path d="M26.3333 26.3333C24.3641 26.3333 22.395 25.6675 20.6666 24.4492C17.21 26.8717 12.79 26.8717 9.33331 24.4492C7.60498 25.6675 5.63581 26.3333 3.66665 26.3333H0.833313V29.1667H3.66665C5.60748 29.1667 7.54831 28.6708 9.33331 27.75C12.875 29.5917 17.125 29.5917 20.6666 27.75C22.4516 28.6708 24.3783 29.1667 26.3333 29.1667H29.1666V26.3333H26.3333ZM27.4383 24.9167H26.3333C24.6616 24.9167 22.99 24.35 21.4883 23.2875L20.6666 22.7208L19.845 23.2875C18.3858 24.3075 16.7141 24.8458 15 24.8458C13.2575 24.8458 11.5858 24.3075 10.1266 23.2875L9.33331 22.7208L8.52581 23.2875C7.00998 24.35 5.33831 24.9167 3.66665 24.9167H2.56165C3.31248 22.8483 5.90498 19.25 15 19.25C17.8333 19.25 19.25 19.59 19.25 19.59C20.2133 17.6492 21.8425 13.2575 20.6666 7.66166L22.1683 8.6675C22.6358 10.6933 23.5 14.6458 21.8 20.1708C25.5258 21.375 26.9283 23.5 27.4383 24.9167ZM29.1666 8.7525C28.0475 7.20833 26.3333 6.08916 24.3216 5.83416C24.4916 6.0325 24.6475 6.25916 24.8033 6.5C25.6106 7.78909 25.9841 9.30266 25.8694 10.8193C25.7547 12.336 25.1578 13.7761 24.1658 14.9292C25.0016 12.875 24.9166 10.4525 23.6133 8.42666C23.5 8.31333 23.4433 8.2 23.3583 8.0725C22.7916 7.25083 22.0266 6.585 21.205 6.10333C18.3291 7.02416 16.2466 9.71583 16.2466 12.875C16.2466 13.6258 16.36 14.3342 16.5583 15C15.7083 13.8242 15.2266 12.4075 15.2266 10.8492C15.2266 8.4975 16.36 6.42916 18.1166 5.12583C16.6433 5.0125 15.1275 5.33833 13.7816 6.18833C13.1583 6.57083 12.62 7.03833 12.1666 7.57666C12.7191 6.245 13.6541 5.08333 15 4.23333C16.4225 3.31839 18.1324 2.96026 19.8025 3.2275C19.3803 2.64198 18.8743 2.1217 18.3008 1.68333C17.72 1.24416 17.0825 0.904163 16.4166 0.66333C17.8333 0.70583 19.3066 1.17333 20.5391 2.09416C21.1625 2.56166 21.6583 3.12833 22.0833 3.7375C22.1683 3.7375 22.2533 3.72333 22.3525 3.72333C23.8768 3.72252 25.3613 4.21056 26.5878 5.11577C27.8142 6.02097 28.7181 7.29562 29.1666 8.7525Z" fill="white"/>
</svg>
